<?xml version="1.0" encoding="utf-8"?>
<!-- Generator: Adobe Illustrator 19.2.0, SVG Export Plug-In . SVG Version: 6.00 Build 0)  -->
<svg version="1.1" xmlns="http://www.w3.org/2000/svg" xmlns:xlink="http://www.w3.org/1999/xlink" x="0px" y="0px"
	 viewBox="0 0 220.7 213.9" style="enable-background:new 0 0 220.7 213.9;" xml:space="preserve">
<style type="text/css">
	.st0{fill:none;stroke:#00A99D;stroke-width:5;stroke-miterlimit:10;}
	.st1{fill:none;stroke:#00A99D;stroke-width:5;stroke-linecap:round;stroke-miterlimit:10;}
	.st2{display:none;}
	.st3{display:inline;fill:none;stroke:#00A99D;stroke-width:5;stroke-linecap:round;stroke-miterlimit:10;}
</style>
<g id="Layer_1">
	<path class="st0" d="M206.2,211.6H108c-6.6,0-12-5.4-12-12V14.7c0-6.6,5.4-12,12-12h98.3c6.6,0,12,5.4,12,12v184.9
		C218.2,206.2,212.8,211.6,206.2,211.6z"/>
	<line class="st1" x1="116.9" y1="31.9" x2="197.3" y2="31.9"/>
	<line class="st1" x1="116.9" y1="60.5" x2="197.3" y2="60.5"/>
	<line class="st1" x1="116.9" y1="88.8" x2="197.3" y2="88.8"/>
	<line class="st1" x1="116.9" y1="116.1" x2="197.3" y2="116.1"/>
	
		<ellipse transform="matrix(0.5524 -0.8336 0.8336 0.5524 -68.8937 242.8187)" class="st0" cx="191.7" cy="185.6" rx="2.8" ry="2.8"/>
	
		<ellipse transform="matrix(0.5524 -0.8336 0.8336 0.5524 -78.2267 225.4374)" class="st0" cx="170.8" cy="185.6" rx="2.8" ry="2.8"/>
	<line class="st1" x1="116.9" y1="143.3" x2="197.3" y2="143.3"/>
</g>
<g id="Layer_2" class="st2">
	<polyline class="st3" points="168.7,88.7 211.9,88.7 232.1,60.7 257.7,60.7 	"/>
	<line class="st3" x1="168.7" y1="116.7" x2="257.7" y2="116.7"/>
	<polyline class="st3" points="168.7,101.7 218.6,101.7 230.6,86.7 257.7,86.7 	"/>
	<polyline class="st3" points="168.7,130.7 191.9,130.7 218.1,168.7 257.7,168.7 	"/>
	<polyline class="st3" points="45.7,115.7 19.7,115.7 7.4,143.7 -33.3,143.7 	"/>
	<polyline class="st3" points="45.7,101.7 18.7,101.7 -12.1,74.7 -33.3,74.7 	"/>
	<polyline class="st3" points="45.7,88.3 23.7,89 -17,51.7 -33.3,51.7 	"/>
	<polyline class="st3" points="45.7,74.7 32.7,74.7 -33.3,14 	"/>
</g>
<g id="Layer_3">
	<circle class="st0" cx="11.5" cy="12.4" r="8.7"/>
	<line class="st1" x1="33.7" y1="3.7" x2="33.7" y2="21.2"/>
	<circle class="st0" cx="56.4" cy="12.4" r="8.7"/>
	<line class="st1" x1="78.7" y1="3.7" x2="78.7" y2="21.2"/>
	<circle class="st0" cx="27.3" cy="49.2" r="8.7"/>
	<line class="st1" x1="4.5" y1="40.7" x2="4.5" y2="58.2"/>
	<circle class="st0" cx="70" cy="49.2" r="8.7"/>
	<line class="st1" x1="48.9" y1="40.5" x2="48.9" y2="58"/>
	<circle class="st0" cx="11.5" cy="86.2" r="8.7"/>
	<line class="st1" x1="33.7" y1="77.5" x2="33.7" y2="95"/>
	<circle class="st0" cx="56.4" cy="86.2" r="8.7"/>
	<line class="st1" x1="78.7" y1="77.5" x2="78.7" y2="95"/>
	<circle class="st0" cx="27.3" cy="123" r="8.7"/>
	<line class="st1" x1="4.5" y1="114.5" x2="4.5" y2="132"/>
	<circle class="st0" cx="70" cy="123" r="8.7"/>
	<line class="st1" x1="48.9" y1="114.2" x2="48.9" y2="131.7"/>
	<circle class="st0" cx="11.5" cy="158.6" r="8.7"/>
	<line class="st1" x1="33.7" y1="149.9" x2="33.7" y2="167.4"/>
	<circle class="st0" cx="56.4" cy="158.5" r="8.7"/>
	<line class="st1" x1="78.7" y1="149.8" x2="78.7" y2="167.3"/>
</g>
</svg>
