<svg xmlns="http://www.w3.org/2000/svg" viewBox="0 0 640 190.51"><defs><style>.a{fill:none;stroke:#839594;stroke-linecap:round;stroke-miterlimit:10;stroke-width:2px;}.b{fill:#110b00;}.c{fill:#38454f;}.d{fill:#546a79;}.e{fill:#839caa;}.f{fill:#afb6bb;}.g{fill:#00a99d;}.h{fill:#fbb03b;}.i{fill:#662d91;}</style></defs><title>Untitled-1</title><path class="a" d="M204.83,56.1"/><path class="a" d="M145.92,130"/><path class="b" d="M3.12,164.17H638a2,2,0,0,1,2,2v24.29a0,0,0,0,1,0,0H0a0,0,0,0,1,0,0V167.29A3.12,3.12,0,0,1,3.12,164.17Z"/><path class="c" d="M368.8,153.53a3.85,3.85,0,0,0,3.61,2.57H393a3.85,3.85,0,0,0,3.61-2.57h51.62V68.92A7.88,7.88,0,0,0,440.32,61H322.49a7.88,7.88,0,0,0-7.88,7.88v84.6H368.8Z"/><rect class="d" x="322.31" y="68.75" width="118.17" height="77.07"/><path class="e" d="M335.16,94.44a2.56,2.56,0,0,0,1.82-.75l10.28-10.28a2.57,2.57,0,0,0-3.63-3.63L333.34,90.05A2.57,2.57,0,0,0,335.16,94.44Z"/><path class="e" d="M335.16,107.28a2.56,2.56,0,0,0,1.82-.75l5.14-5.14a2.57,2.57,0,0,0-3.63-3.63l-5.14,5.14A2.57,2.57,0,0,0,335.16,107.28Z"/><path class="e" d="M343.61,92.62a2.57,2.57,0,1,0,3.65,0A2.72,2.72,0,0,0,343.61,92.62Z"/><path class="e" d="M348.76,91.12a2.57,2.57,0,0,0,3.63,0l7.71-7.71a2.57,2.57,0,0,0-3.63-3.63l-7.71,7.71A2.57,2.57,0,0,0,348.76,91.12Z"/><path class="e" d="M356.46,92.62l-23.12,23.12a2.57,2.57,0,1,0,3.63,3.63L360.1,96.26A2.57,2.57,0,0,0,356.46,92.62Z"/><path class="e" d="M361.59,87.48A2.58,2.58,0,1,0,366,89.3a2.65,2.65,0,0,0-.75-1.82A2.69,2.69,0,0,0,361.59,87.48Z"/><path class="e" d="M372.94,79.78a2.57,2.57,0,0,0-3.63,0l-2.57,2.57A2.57,2.57,0,1,0,370.37,86l2.57-2.57A2.57,2.57,0,0,0,372.94,79.78Z"/><path class="f" d="M396.58,153.53a3.85,3.85,0,0,1-3.61,2.57H372.41a3.85,3.85,0,0,1-3.61-2.57H308.39A1.49,1.49,0,0,0,306.9,155v7.31a1.49,1.49,0,0,0,1.48,1.48h146a1.49,1.49,0,0,0,1.48-1.48V155a1.49,1.49,0,0,0-1.48-1.48H396.58Z"/><path class="f" d="M209.35,162h-14.7a3,3,0,0,1-3-3V137.93h20.69V159A3,3,0,0,1,209.35,162Z"/><rect class="c" x="102" width="200" height="137.93" rx="5.02" ry="5.02"/><rect class="d" x="110.12" y="9.35" width="183.76" height="114.79"/><path class="e" d="M129.59,44.83a3.44,3.44,0,0,0,2.44-1L145.82,30a3.45,3.45,0,1,0-4.88-4.88L127.15,38.94A3.45,3.45,0,0,0,129.59,44.83Z"/><path class="e" d="M129.59,62.07a3.44,3.44,0,0,0,2.44-1l6.9-6.9A3.45,3.45,0,0,0,134,49.29l-6.9,6.9A3.45,3.45,0,0,0,129.59,62.07Z"/><path class="e" d="M140.93,42.38a3.45,3.45,0,0,0,2.45,5.9,3.56,3.56,0,0,0,2.45-1A3.46,3.46,0,1,0,140.93,42.38Z"/><path class="e" d="M147.84,40.37a3.45,3.45,0,0,0,4.88,0L163.06,30a3.45,3.45,0,0,0-4.88-4.88L147.84,35.49A3.44,3.44,0,0,0,147.84,40.37Z"/><path class="e" d="M158.18,42.39l-31,31A3.45,3.45,0,1,0,132,78.3l31-31A3.45,3.45,0,0,0,158.18,42.39Z"/><path class="e" d="M165.07,35.48a3.63,3.63,0,0,0-1,2.45,3.56,3.56,0,0,0,1,2.45,3.5,3.5,0,0,0,4.9,0,3.56,3.56,0,0,0,1-2.45A3.45,3.45,0,0,0,165.07,35.48Z"/><path class="e" d="M180.3,25.15a3.44,3.44,0,0,0-4.88,0L172,28.6a3.45,3.45,0,1,0,4.88,4.88L180.3,30A3.44,3.44,0,0,0,180.3,25.15Z"/><path class="c" d="M166.49,156.31H237.2a2.42,2.42,0,0,1,2.42,2.42V164a0,0,0,0,1,0,0H164.07a0,0,0,0,1,0,0v-5.29A2.42,2.42,0,0,1,166.49,156.31Z"/><rect class="g" x="547" y="87.1" width="16" height="77.07" rx="1.65" ry="1.65"/><rect class="h" x="563" y="73.05" width="16" height="91.12" rx="1.65" ry="1.65"/><rect class="i" x="524.95" y="76.52" width="16" height="87.4" rx="1.65" ry="1.65" transform="translate(31.77 -97.29) rotate(10.75)"/></svg>