<?xml version="1.0" encoding="utf-8"?>
<!-- Generator: Adobe Illustrator 19.2.0, SVG Export Plug-In . SVG Version: 6.00 Build 0)  -->
<svg version="1.1" id="Layer_1" xmlns="http://www.w3.org/2000/svg" xmlns:xlink="http://www.w3.org/1999/xlink" x="0px" y="0px"
	 viewBox="0 0 600 600" style="enable-background:new 0 0 600 600;" xml:space="preserve">
<style type="text/css">
	.st0{fill:#FDFEFF;}
	.st1{fill:#BCBEC0;}
	.st2{fill:#808285;}
	.st3{fill:#F18A2C;}
	.st4{fill:#A7A9AC;}
	.st5{fill:#CBCCCE;}
	.st6{fill:#4AC1F0;}
</style>
<g>
	<g>
		<path class="st0" d="M37.9,186.7H16.2l41,96.4l87.3-4.8l-59.8-69.6C73.2,194.8,56,186.7,37.9,186.7L37.9,186.7z"/>
		<path class="st1" d="M1.9,191.8l41.5,92.1l13.8-0.8l-41-96.4h-11C2.6,186.7,0.9,189.4,1.9,191.8z"/>
		<path class="st0" d="M22.8,290.4l2.1,6.3c5.4,16.4,18.9,28.7,35.7,32.5c154.3,35.3,387,56.6,438.8,56.6
			c55,0,100.6-32.7,100.6-56.1c0-23.4-29.8-78.8-89.5-78.3c-20.4,0.2-366,27-366,27l-101.1,5.5l-15.7-0.8
			C24.1,283.3,21.7,286.9,22.8,290.4z"/>
		<g>
			<path class="st1" d="M118.8,283.4H35.1L1.6,313.1l29.1,2.1C30.7,315.2,118,283.4,118.8,283.4L118.8,283.4z"/>
			<path class="st1" d="M118.8,280.2H35.1L1.6,309.9l29.1,2.1C30.7,312.1,118,280.2,118.8,280.2L118.8,280.2z"/>
			<path class="st2" d="M116.3,284.3l-85.6,31v-3.2l88.1-31.9l0,0C118.8,282.1,117.8,283.7,116.3,284.3z"/>
			<polygon class="st2" points="1.6,313.1 1.6,309.9 30.7,312.1 30.7,315.2 			"/>
		</g>
		<g>
			<path class="st3" d="M60.6,329.3c154.3,35.3,387,56.6,438.8,56.6c38.9,0,73.1-16.4,89.8-34.3c-40.5,8.2-100.9,12.8-178-3
				c-127-26-198.5-81.5-367.2-26.6C48.9,325.4,54.6,327.9,60.6,329.3z"/>
		</g>
		<g>
			<path class="st4" d="M309.5,351.6c-3.3,0.8-6.5,2-9.6,3.4l-26.5,12.6c-4,1.5-6.7,5.3-6.7,9.5l0,0c0,4.9,3.6,9.2,8.4,10l26.4,6.1
				h66.8c4.7,0,8.7-3.2,9.8-7.7c3.7-16.2,0.1-35.1,0.1-35.1C350.9,342.8,321.5,348.6,309.5,351.6z"/>
			<path class="st5" d="M366.7,393.2h1.8c4.7,0,8.7-3.2,9.8-7.7c3.7-16.2,0.1-35.1,0.1-35.1c-2.9-0.8-5.9-1.5-8.8-2
				c0.6,4.3,3,23-0.2,39.4C368.9,389.9,368,391.8,366.7,393.2z"/>
		</g>
		<g>
			<path class="st4" d="M278.4,370.2c-3.3,0.8-6.5,2-9.6,3.4l-26.5,12.6c-4,1.5-6.7,5.3-6.7,9.5l0,0c0,4.9,3.6,9.2,8.4,10l26.4,6.1
				h66.8c4.7,0,8.7-3.2,9.8-7.7c3.7-16.2,0.1-35.1,0.1-35.1C319.8,361.4,290.4,367.2,278.4,370.2z"/>
			<path class="st5" d="M335.6,411.8h1.8c4.7,0,8.7-3.2,9.8-7.7c3.7-16.2,0.1-35.1,0.1-35.1c-2.9-0.8-5.9-1.5-8.8-2
				c0.6,4.3,3,23-0.2,39.4C337.8,408.5,336.9,410.4,335.6,411.8z"/>
		</g>
		<g>
			<path class="st1" d="M385.7,338.8H236.5l-61.2,55.7l53.2,4C228.5,398.5,384.3,338.8,385.7,338.8L385.7,338.8z"/>
			<path class="st1" d="M389.5,332.8h-153l-61.2,55.7l53.2,4C228.5,392.5,388.1,332.8,389.5,332.8L389.5,332.8z"/>
			<path class="st2" d="M385,340.5l-156.4,58v-6l161-59.7l0,0C389.5,336.4,387.7,339.5,385,340.5z"/>
			<polygon class="st2" points="175.4,394.5 175.4,388.5 228.5,392.5 228.5,398.5 			"/>
		</g>
		<g>
			<path class="st6" d="M566.7,292.3c5.4-0.6,11.2-1.4,17.5-2.4c-6.4-9-14.9-17.6-25.3-24.4l-13,1.4L566.7,292.3z"/>
			<path class="st6" d="M526.5,269l21.3,24.5c4.4-0.1,9.3-0.3,14.8-0.8l-20.7-25.3L526.5,269z"/>
			<path class="st6" d="M543,293.5l-20.9-24l-16.3,1.8C505.8,271.3,499.1,292.9,543,293.5z"/>
		</g>
		<g>
			<path class="st1" d="M455.2,297.8v-11c0-2.8,2.3-5.1,5.1-5.1H471c2.8,0,5.1,2.3,5.1,5.1v11c0,2.8-2.3,5.1-5.1,5.1h-10.7
				C457.5,302.9,455.2,300.6,455.2,297.8z"/>
			<path class="st6" d="M456.8,296.9v-9.3c0-2.4,2-4.4,4.4-4.4h9.1c2.4,0,4.4,2,4.4,4.4v9.3c0,2.4-2,4.4-4.4,4.4h-9.1
				C458.7,301.3,456.8,299.3,456.8,296.9z"/>
		</g>
		<g>
			<path class="st1" d="M416.2,297.8v-11c0-2.8,2.3-5.1,5.1-5.1H432c2.8,0,5.1,2.3,5.1,5.1v11c0,2.8-2.3,5.1-5.1,5.1h-10.7
				C418.5,302.9,416.2,300.6,416.2,297.8z"/>
			<path class="st6" d="M417.8,296.9v-9.3c0-2.4,2-4.4,4.4-4.4h9.1c2.4,0,4.4,2,4.4,4.4v9.3c0,2.4-2,4.4-4.4,4.4h-9.1
				C419.7,301.3,417.8,299.3,417.8,296.9z"/>
		</g>
		<g>
			<path class="st1" d="M377.2,297.8v-11c0-2.8,2.3-5.1,5.1-5.1H393c2.8,0,5.1,2.3,5.1,5.1v11c0,2.8-2.3,5.1-5.1,5.1h-10.7
				C379.5,302.9,377.2,300.6,377.2,297.8z"/>
			<path class="st6" d="M378.8,296.9v-9.3c0-2.4,2-4.4,4.4-4.4h9.1c2.4,0,4.4,2,4.4,4.4v9.3c0,2.4-2,4.4-4.4,4.4h-9.1
				C380.7,301.3,378.8,299.3,378.8,296.9z"/>
		</g>
		<g>
			<path class="st1" d="M338.2,297.8v-11c0-2.8,2.3-5.1,5.1-5.1H354c2.8,0,5.1,2.3,5.1,5.1v11c0,2.8-2.3,5.1-5.1,5.1h-10.7
				C340.5,302.9,338.2,300.6,338.2,297.8z"/>
			<path class="st6" d="M339.8,296.9v-9.3c0-2.4,2-4.4,4.4-4.4h9.1c2.4,0,4.4,2,4.4,4.4v9.3c0,2.4-2,4.4-4.4,4.4h-9.1
				C341.8,301.3,339.8,299.3,339.8,296.9z"/>
		</g>
		<g>
			<path class="st1" d="M299.2,297.8v-11c0-2.8,2.3-5.1,5.1-5.1h10.7c2.8,0,5.1,2.3,5.1,5.1v11c0,2.8-2.3,5.1-5.1,5.1h-10.7
				C301.5,302.9,299.2,300.6,299.2,297.8z"/>
			<path class="st6" d="M300.8,296.9v-9.3c0-2.4,2-4.4,4.4-4.4h9.1c2.4,0,4.4,2,4.4,4.4v9.3c0,2.4-2,4.4-4.4,4.4h-9.1
				C302.8,301.3,300.8,299.3,300.8,296.9z"/>
		</g>
		<g>
			<path class="st1" d="M260.2,297.8v-11c0-2.8,2.3-5.1,5.1-5.1h10.7c2.8,0,5.1,2.3,5.1,5.1v11c0,2.8-2.3,5.1-5.1,5.1h-10.7
				C262.5,302.9,260.2,300.6,260.2,297.8z"/>
			<path class="st6" d="M261.8,296.9v-9.3c0-2.4,2-4.4,4.4-4.4h9.1c2.4,0,4.4,2,4.4,4.4v9.3c0,2.4-2,4.4-4.4,4.4h-9.1
				C263.8,301.3,261.8,299.3,261.8,296.9z"/>
		</g>
	</g>
</g>
</svg>
