<?xml version="1.0" encoding="utf-8"?>
<!-- Generator: Adobe Illustrator 19.2.0, SVG Export Plug-In . SVG Version: 6.00 Build 0)  -->
<svg version="1.1" xmlns="http://www.w3.org/2000/svg" xmlns:xlink="http://www.w3.org/1999/xlink" x="0px" y="0px"
	 viewBox="0 0 220.7 213.9" style="enable-background:new 0 0 220.7 213.9;" xml:space="preserve">
<style type="text/css">
	.st0{display:none;}
	.st1{display:inline;fill:none;stroke:#00A99D;stroke-width:5;stroke-linecap:round;stroke-miterlimit:10;}
	.st2{fill:#00A99D;}
	.st3{fill:none;stroke:#00A99D;stroke-width:5;stroke-linecap:round;stroke-miterlimit:10;}
	.st4{fill:none;stroke:#00A99D;stroke-width:5;stroke-linecap:round;stroke-linejoin:round;stroke-miterlimit:10;}
	.st5{fill:none;stroke:#00A99D;stroke-width:5;stroke-miterlimit:10;}
</style>
<g id="Layer_1">
</g>
<g id="Layer_2" class="st0">
	<polyline class="st1" points="168.7,88.7 211.9,88.7 232.1,60.7 257.7,60.7 	"/>
	<line class="st1" x1="168.7" y1="116.7" x2="257.7" y2="116.7"/>
	<polyline class="st1" points="168.7,101.7 218.6,101.7 230.6,86.7 257.7,86.7 	"/>
	<polyline class="st1" points="168.7,130.7 191.9,130.7 218.1,168.7 257.7,168.7 	"/>
	<polyline class="st1" points="45.7,115.7 19.7,115.7 7.4,143.7 -33.3,143.7 	"/>
	<polyline class="st1" points="45.7,101.7 18.7,101.7 -12.1,74.7 -33.3,74.7 	"/>
	<polyline class="st1" points="45.7,88.3 23.7,89 -17,51.7 -33.3,51.7 	"/>
	<polyline class="st1" points="45.7,74.7 32.7,74.7 -33.3,14 	"/>
</g>
<g id="Layer_3">
	<g>
		<path class="st2" d="M208.7,5.2c3.9,0,7,3,7,6.8v146.5c0,3.9-3.1,6.7-7,6.7H12c-3.9,0-7.3-2.9-7.3-6.7V12c0-3.9,3.5-6.8,7.3-6.8
			H208.7 M208.7,0.2H12C5.4,0.2-0.3,5.4-0.3,12v146.5c0,6.6,5.7,11.7,12.3,11.7h196.7c6.6,0,12-5.1,12-11.7V12
			C220.7,5.4,215.3,0.2,208.7,0.2L208.7,0.2z"/>
	</g>
	<line class="st3" x1="71.1" y1="211.6" x2="149.6" y2="211.1"/>
	<line class="st3" x1="84" y1="168.1" x2="78.9" y2="211.3"/>
	<line class="st3" x1="137.5" y1="168.1" x2="142.5" y2="211.3"/>
	<line class="st3" x1="2.7" y1="140.7" x2="217.7" y2="140.7"/>
	<rect x="11.2" y="11.7" class="st4" width="198" height="120"/>
	<circle class="st5" cx="20.7" cy="21.6" r="2.5"/>
	<circle class="st5" cx="32.9" cy="21.6" r="2.5"/>
	<circle class="st5" cx="44.9" cy="21.6" r="2.5"/>
	<line class="st5" x1="11.2" y1="32.1" x2="209.2" y2="32.1"/>
	<rect x="20.7" y="41.7" class="st5" width="56.6" height="40.5"/>
	<line class="st5" x1="84.7" y1="41.7" x2="155.2" y2="41.7"/>
	<line class="st5" x1="84.7" y1="52" x2="155.2" y2="52"/>
	<line class="st5" x1="84.7" y1="62.3" x2="155.2" y2="62.3"/>
	<line class="st5" x1="84.7" y1="72.8" x2="155.2" y2="72.8"/>
	<line class="st5" x1="84.7" y1="83" x2="155.2" y2="83"/>
	<line class="st5" x1="84.7" y1="93.3" x2="155.2" y2="93.3"/>
	<line class="st5" x1="84.9" y1="104.6" x2="155.4" y2="104.6"/>
	<line class="st5" x1="84.9" y1="114.8" x2="155.4" y2="114.8"/>
	<rect x="161.4" y="40.2" class="st5" width="38.4" height="40.5"/>
	<rect x="161.4" y="90.5" class="st5" width="38.4" height="40.5"/>
	<line class="st5" x1="84.7" y1="125.1" x2="155.2" y2="125.1"/>
	<line class="st5" x1="18.2" y1="93" x2="79.1" y2="93"/>
	<line class="st5" x1="18.4" y1="104.3" x2="79.3" y2="104.3"/>
</g>
</svg>
