<?xml version="1.0" encoding="utf-8"?>
<!-- Generator: Adobe Illustrator 19.2.0, SVG Export Plug-In . SVG Version: 6.00 Build 0)  -->
<svg version="1.1" id="Layer_1" xmlns="http://www.w3.org/2000/svg" xmlns:xlink="http://www.w3.org/1999/xlink" x="0px" y="0px"
	 viewBox="0 0 600 600" style="enable-background:new 0 0 600 600;" xml:space="preserve">
<style type="text/css">
	.st0{opacity:0.5;fill:#F8FFFB;}
	.st1{fill:#BC8A6B;}
	.st2{fill:#656668;}
	.st3{fill:#6D6E70;}
	.st4{fill:#2E94D1;}
	.st5{fill:#6E9CD2;}
</style>
<g>
	<circle class="st0" cx="299.7" cy="342.2" r="257.7"/>
	<path class="st1" d="M204.8,233.8c-0.4-1.1-17.5-17.3-27.9-27c-5-4.7-7.8-11.2-7.8-18V179c0-5.4,1.8-10.6,5-14.9l0,0
		c6.5-8.6,16.7-9.4,26.9-5.7l19.7,12.4l-0.5,11.1l10.1,33.4l-1.7,14.5L204.8,233.8z"/>
	<path class="st1" d="M198.4,285.8c-0.4-1.1-17.5-17.3-27.9-27c-5-4.7-7.8-11.2-7.8-18V231c0-5.4,1.8-10.6,5-14.9l0,0
		c6.5-8.6,16.7-9.4,26.9-5.7l19.7,12.4l-0.5,11.1l10.1,33.4l-1.7,14.5L198.4,285.8z"/>
	<path class="st1" d="M445.2,274.1c-1.4-21-11.3-40.6-27.6-54l-38-31.4c-5.7-4.7-14.4-0.7-14.4,6.8l0,0c0,18.6,5.7,36.8,16.4,52.1
		l2.8,4c4.7,6.7,7.2,14.7,7.2,22.8v16.7c0,1.2-0.1,2.4-0.4,3.6c-0.2-1.9-37.9-51-37.9-51l-17.5,28.7c0,0-2.6,36.8-3.3,47.7
		l-113.9,30.3c0,0-3.8-3.8-11.3,5.4l-4.8,47.9c0,0,61.7,62.4,61.7,75.4v118.3c11.6,1.6,23.5,2.4,35.6,2.4c34.5,0,67.3-6.8,97.4-19
		V472L441,355.6c5.2-17.1,7.3-35,6.1-52.8L445.2,274.1z"/>
	<path class="st1" d="M220.4,403.7h-18l-40-38.7c-5.6-5.4-8.7-12.8-8.7-20.6v-1.6c0-14.8,11.3-27.2,26-28.5l4.3-0.4l13.5,40.3
		c0,0,22.1,10.4,21.2,13.2C217.9,370.1,220.4,403.7,220.4,403.7z"/>
	<path class="st1" d="M187.1,338.2c-0.4-1.1-17.5-17.3-27.9-27c-5-4.7-7.8-11.2-7.8-18v-9.7c0-5.4,1.8-10.6,5-14.9l0,0
		c6.5-8.6,17.9-12,28.1-8.4l4.8,1.7l13.2,24.4l10.1,33.4l-1.7,14.5L187.1,338.2z"/>
	<g>
		<path class="st2" d="M270.6,107.6h-38V18.9c0-10.5,8.5-19,19-19l0,0c10.5,0,19,8.5,19,19V107.6z"/>
		<path class="st3" d="M381.6,416.6H223.4c-10.7,0-19.4-8.7-19.4-19.4V112.1c0-10.7,8.7-19.4,19.4-19.4h158.2
			c10.7,0,19.4,8.7,19.4,19.4v285.1C401,407.9,392.3,416.6,381.6,416.6z"/>
		<path class="st4" d="M223.8,212.8v-85.2c0-8.4,6.8-15.2,15.2-15.2h127c8.4,0,15.2,6.8,15.2,15.2v85.2c0,8.4-6.8,15.2-15.2,15.2
			H239C230.6,228,223.8,221.2,223.8,212.8z"/>
		<g>
			<g>
				<path class="st2" d="M259.6,251.9h-24.2c-4,0-7.2-3.2-7.2-7.2v-2.1c0-4,3.2-7.2,7.2-7.2h24.2c4,0,7.2,3.2,7.2,7.2v2.1
					C266.8,248.7,263.6,251.9,259.6,251.9z"/>
				<path class="st2" d="M314.6,251.9h-24.2c-4,0-7.2-3.2-7.2-7.2v-2.1c0-4,3.2-7.2,7.2-7.2h24.2c4,0,7.2,3.2,7.2,7.2v2.1
					C321.8,248.7,318.6,251.9,314.6,251.9z"/>
				<path class="st2" d="M369.6,251.9h-24.2c-4,0-7.2-3.2-7.2-7.2v-2.1c0-4,3.2-7.2,7.2-7.2h24.2c4,0,7.2,3.2,7.2,7.2v2.1
					C376.8,248.7,373.6,251.9,369.6,251.9z"/>
			</g>
			<g>
				<g>
					<ellipse class="st2" cx="250.7" cy="276.5" rx="20.9" ry="15.1"/>
					<ellipse class="st2" cx="302.5" cy="276.5" rx="20.9" ry="15.1"/>
					<ellipse class="st2" cx="354.2" cy="276.5" rx="20.9" ry="15.1"/>
				</g>
				<g>
					<ellipse class="st2" cx="250.7" cy="312.4" rx="20.9" ry="15.1"/>
					<ellipse class="st2" cx="302.5" cy="312.4" rx="20.9" ry="15.1"/>
					<ellipse class="st2" cx="354.2" cy="312.4" rx="20.9" ry="15.1"/>
				</g>
				<g>
					<ellipse class="st2" cx="250.7" cy="348.3" rx="20.9" ry="15.1"/>
					<ellipse class="st2" cx="302.5" cy="348.3" rx="20.9" ry="15.1"/>
					<ellipse class="st2" cx="354.2" cy="348.3" rx="20.9" ry="15.1"/>
				</g>
				<g>
					<ellipse class="st2" cx="250.7" cy="384.2" rx="20.9" ry="15.1"/>
					<ellipse class="st2" cx="302.5" cy="384.2" rx="20.9" ry="15.1"/>
					<ellipse class="st2" cx="354.2" cy="384.2" rx="20.9" ry="15.1"/>
				</g>
			</g>
		</g>
		<g>
			<polygon class="st5" points="254,112.4 223.8,142.6 223.8,152.8 264.2,112.4 			"/>
			<polygon class="st5" points="277.3,112.4 223.8,166 223.8,176.2 287.5,112.4 			"/>
			<polygon class="st5" points="300.7,112.4 223.8,189.3 223.8,199.5 310.9,112.4 			"/>
		</g>
	</g>
	<g>
		<path class="st1" d="M198.5,265.4l-25.6-16.3c-10.3-6.6-13.3-20.3-6.8-30.6l0,0c6.6-10.3,20.3-13.3,30.6-6.8l25.6,16.3
			c10.3,6.6,13.3,20.3,6.8,30.6l0,0C222.5,268.9,208.8,272,198.5,265.4z"/>
		<path class="st1" d="M194.1,317.3l-25.6-16.3c-10.3-6.6-13.3-20.3-6.8-30.6l0,0c6.6-10.3,20.3-13.3,30.6-6.8l25.6,16.3
			c10.3,6.6,13.3,20.3,6.8,30.6l0,0C218.1,320.8,204.4,323.9,194.1,317.3z"/>
		<path class="st1" d="M204.1,367.8l-32.4-20.7c-8.4-5.4-10.9-16.6-5.5-25l0,0c5.4-8.4,16.6-10.9,25-5.5l32.4,20.7
			c8.4,5.4,10.9,16.6,5.5,25v0C223.7,370.7,212.5,373.1,204.1,367.8z"/>
		<path class="st1" d="M204.9,213.5l-25.6-16.3c-10.3-6.6-13.3-20.3-6.8-30.6l0,0c6.6-10.3,20.3-13.3,30.6-6.8l25.6,16.3
			c10.3,6.6,13.3,20.3,6.8,30.6v0C228.9,217.1,215.2,220.1,204.9,213.5z"/>
	</g>
	<path class="st1" d="M401,206.3c0,0-22-21.1-30.4-19.6c-8.4,1.5-18,35.8-3.6,51.9c14.4,16.1,41.3,44.8,41.3,44.8L401,206.3z"/>
</g>
</svg>
