<?xml version="1.0" encoding="utf-8"?>
<!-- Generator: Adobe Illustrator 19.2.0, SVG Export Plug-In . SVG Version: 6.00 Build 0)  -->
<svg version="1.1" id="Layer_1" xmlns="http://www.w3.org/2000/svg" xmlns:xlink="http://www.w3.org/1999/xlink" x="0px" y="0px"
	 viewBox="0 0 600 600" style="enable-background:new 0 0 600 600;" xml:space="preserve">
<style type="text/css">
	.st0{fill:#F7931E;}
	.st1{fill:#FFFFFF;}
	.st2{fill:#CCCCCC;}
</style>
<path class="st0" d="M368.5,526.8H232.6c-81.2,0-147.7-66.4-147.7-147.7V261.3h429.9c0.7,0,1.4,0.6,1.4,1.4v116.5
	C516.2,460.4,449.7,526.8,368.5,526.8z"/>
<rect x="198.7" y="525" class="st0" width="204.9" height="31.1"/>
<rect x="84.9" y="291.4" class="st1" width="431.2" height="7.9"/>
<rect x="84.9" y="310.6" class="st1" width="431.2" height="7.9"/>
<rect x="84.9" y="329.8" class="st1" width="431.8" height="7.9"/>
<g>
	<path class="st2" d="M287.5,245.4c0,0,0.2-0.8,0.7-2.3c0.5-1.5,1.1-3.7,2-6.5c0.9-2.8,1.9-6.1,3.1-10c1.2-3.9,2.4-8.2,3.6-13
		c1.2-4.8,2.3-9.9,3.1-15.4c0.8-5.5,1.2-11.2,1.1-17.1c0-0.7-0.1-1.5-0.1-2.2c0-0.7-0.1-1.5-0.2-2.2c-0.2-1.5-0.2-3-0.5-4.4
		c-0.1-0.7-0.3-1.5-0.4-2.2c-0.1-0.7-0.2-1.5-0.5-2.2c-0.2-0.7-0.4-1.5-0.5-2.2l-0.3-1.1l-0.1-0.5l-0.2-0.5l-0.7-2.3l-0.8-2.1
		c-0.6-1.4-1.1-2.9-1.8-4.3c-1.2-2.9-2.6-5.8-4.1-8.6c-2.9-5.8-6.2-11.6-9-17.8c-1.4-3.1-2.7-6.2-3.7-9.5c-0.2-0.8-0.5-1.5-0.7-2.3
		c-0.3-0.7-0.4-1.6-0.7-2.4c-0.4-1.7-0.9-3.3-1.1-4.9c-1.3-6.4-1.7-12.8-1.5-18.7c0.2-6,1.1-11.5,2.3-16.5c1.1-5,2.8-9.4,4.4-13.3
		c0.9-1.9,1.7-3.7,2.5-5.2c0.9-1.6,1.6-3,2.4-4.2c0.8-1.2,1.5-2.3,2.2-3.3c0.7-0.9,1.3-1.7,1.7-2.3c1-1.2,1.5-1.9,1.5-1.9
		s-0.3,0.8-1,2.2c-0.3,0.7-0.7,1.6-1.2,2.6c-0.4,1.1-0.9,2.3-1.4,3.6c-0.5,1.3-1,2.9-1.6,4.5c-0.5,1.6-1,3.4-1.6,5.3
		c-0.2,1-0.4,2-0.7,3c-0.2,1-0.5,2.1-0.6,3.2c-0.2,1.1-0.4,2.2-0.6,3.3c-0.1,1.1-0.3,2.3-0.4,3.5c-0.5,4.8-0.7,10-0.4,15.4
		c0.3,5.4,1.2,11.1,2.7,16.8c0.3,1.5,0.8,2.8,1.2,4.2l0.3,1c0.1,0.3,0.2,0.7,0.4,1.1c0.3,0.7,0.6,1.5,0.8,2.2c1,2.8,2.3,5.6,3.7,8.4
		c2.8,5.6,6,11.4,9.1,17.4c1.5,3,3,6.1,4.4,9.3c0.7,1.6,1.3,3.2,1.9,4.9l0.9,2.6l0.7,2.4l0.2,0.7l0.1,0.6l0.3,1.3
		c0.2,0.9,0.4,1.7,0.6,2.6c0.2,0.8,0.3,1.7,0.4,2.6c0.1,0.9,0.2,1.7,0.3,2.6c0.3,1.7,0.3,3.4,0.4,5.1c0,0.8,0.1,1.7,0.1,2.5
		c0,0.8,0,1.7-0.1,2.5c-0.2,6.6-1.2,12.8-2.5,18.5c-1.4,5.7-3.2,11-5,15.7c-1.9,4.7-3.7,8.9-5.5,12.6c-1.8,3.7-3.5,6.8-4.8,9.4
		c-1.4,2.6-2.5,4.6-3.3,5.9C287.9,244.7,287.5,245.4,287.5,245.4z"/>
</g>
<g>
	<path class="st2" d="M353.8,245.4c0,0,0.2-0.8,0.7-2.3c0.5-1.5,1.1-3.7,2-6.5c0.9-2.8,1.9-6.1,3.1-10c1.2-3.9,2.4-8.2,3.6-13
		c1.2-4.8,2.3-9.9,3.1-15.4c0.8-5.5,1.2-11.2,1.1-17.1c0-0.7-0.1-1.5-0.1-2.2c0-0.7-0.1-1.5-0.2-2.2c-0.2-1.5-0.2-3-0.5-4.4
		c-0.1-0.7-0.3-1.5-0.4-2.2c-0.1-0.7-0.2-1.5-0.5-2.2c-0.2-0.7-0.4-1.5-0.5-2.2l-0.3-1.1l-0.1-0.5l-0.2-0.5l-0.7-2.3l-0.8-2.1
		c-0.6-1.4-1.1-2.9-1.8-4.3c-1.2-2.9-2.6-5.8-4.1-8.6c-2.9-5.8-6.2-11.6-9-17.8c-1.4-3.1-2.7-6.2-3.7-9.5c-0.2-0.8-0.5-1.5-0.7-2.3
		c-0.3-0.7-0.4-1.6-0.7-2.4c-0.4-1.7-0.9-3.3-1.1-4.9c-1.3-6.4-1.7-12.8-1.5-18.7c0.2-6,1.1-11.5,2.3-16.5c1.1-5,2.8-9.4,4.4-13.3
		c0.9-1.9,1.7-3.7,2.5-5.2c0.9-1.6,1.6-3,2.4-4.2c0.8-1.2,1.5-2.3,2.2-3.3c0.7-0.9,1.3-1.7,1.7-2.3c1-1.2,1.5-1.9,1.5-1.9
		s-0.3,0.8-1,2.2c-0.3,0.7-0.7,1.6-1.2,2.6c-0.4,1.1-0.9,2.3-1.4,3.6c-0.5,1.3-1,2.9-1.6,4.5c-0.5,1.6-1,3.4-1.6,5.3
		c-0.2,1-0.4,2-0.7,3c-0.2,1-0.5,2.1-0.6,3.2c-0.2,1.1-0.4,2.2-0.6,3.3c-0.1,1.1-0.3,2.3-0.4,3.5c-0.5,4.8-0.7,10-0.4,15.4
		c0.3,5.4,1.2,11.1,2.7,16.8c0.3,1.5,0.8,2.8,1.2,4.2l0.3,1c0.1,0.3,0.2,0.7,0.4,1.1c0.3,0.7,0.6,1.5,0.8,2.2c1,2.8,2.3,5.6,3.7,8.4
		c2.8,5.6,6,11.4,9.1,17.4c1.5,3,3,6.1,4.4,9.3c0.7,1.6,1.3,3.2,1.9,4.9l0.9,2.6l0.7,2.4l0.2,0.7l0.1,0.6l0.3,1.3
		c0.2,0.9,0.4,1.7,0.6,2.6c0.2,0.8,0.3,1.7,0.4,2.6c0.1,0.9,0.2,1.7,0.3,2.6c0.3,1.7,0.3,3.4,0.4,5.1c0,0.8,0.1,1.7,0.1,2.5
		c0,0.8,0,1.7-0.1,2.5c-0.2,6.6-1.2,12.8-2.5,18.5c-1.4,5.7-3.2,11-5,15.7c-1.9,4.7-3.7,8.9-5.5,12.6c-1.8,3.7-3.5,6.8-4.8,9.4
		c-1.4,2.6-2.5,4.6-3.3,5.9C354.2,244.7,353.8,245.4,353.8,245.4z"/>
</g>
<g>
	<path class="st2" d="M226.7,245.4c0,0,0.2-0.8,0.7-2.3c0.5-1.5,1.1-3.7,2-6.5c0.9-2.8,1.9-6.1,3.1-10c1.2-3.9,2.4-8.2,3.6-13
		c1.2-4.8,2.3-9.9,3.1-15.4c0.8-5.5,1.2-11.2,1.1-17.1c0-0.7-0.1-1.5-0.1-2.2c0-0.7-0.1-1.5-0.2-2.2c-0.2-1.5-0.2-3-0.5-4.4
		c-0.1-0.7-0.3-1.5-0.4-2.2c-0.1-0.7-0.2-1.5-0.5-2.2c-0.2-0.7-0.4-1.5-0.5-2.2l-0.3-1.1l-0.1-0.5l-0.2-0.5l-0.7-2.3l-0.8-2.1
		c-0.6-1.4-1.1-2.9-1.8-4.3c-1.2-2.9-2.6-5.8-4.1-8.6c-2.9-5.8-6.2-11.6-9-17.8c-1.4-3.1-2.7-6.2-3.7-9.5c-0.2-0.8-0.5-1.5-0.7-2.3
		c-0.3-0.7-0.4-1.6-0.7-2.4c-0.4-1.7-0.9-3.3-1.1-4.9c-1.3-6.4-1.7-12.8-1.5-18.7c0.2-6,1.1-11.5,2.3-16.5c1.1-5,2.8-9.4,4.4-13.3
		c0.9-1.9,1.7-3.7,2.5-5.2c0.9-1.6,1.6-3,2.4-4.2c0.8-1.2,1.5-2.3,2.2-3.3c0.7-0.9,1.3-1.7,1.7-2.3c1-1.2,1.5-1.9,1.5-1.9
		s-0.3,0.8-1,2.2c-0.3,0.7-0.7,1.6-1.2,2.6c-0.4,1.1-0.9,2.3-1.4,3.6c-0.5,1.3-1,2.9-1.6,4.5c-0.5,1.6-1,3.4-1.6,5.3
		c-0.2,1-0.4,2-0.7,3c-0.2,1-0.5,2.1-0.6,3.2c-0.2,1.1-0.4,2.2-0.6,3.3c-0.1,1.1-0.3,2.3-0.4,3.5c-0.5,4.8-0.7,10-0.4,15.4
		c0.3,5.4,1.2,11.1,2.7,16.8c0.3,1.5,0.8,2.8,1.2,4.2l0.3,1c0.1,0.3,0.2,0.7,0.4,1.1c0.3,0.7,0.6,1.5,0.8,2.2c1,2.8,2.3,5.6,3.7,8.4
		c2.8,5.6,6,11.4,9.1,17.4c1.5,3,3,6.1,4.4,9.3c0.7,1.6,1.3,3.2,1.9,4.9l0.9,2.6l0.7,2.4l0.2,0.7l0.1,0.6l0.3,1.3
		c0.2,0.9,0.4,1.7,0.6,2.6c0.2,0.8,0.3,1.7,0.4,2.6c0.1,0.9,0.2,1.7,0.3,2.6c0.3,1.7,0.3,3.4,0.4,5.1c0,0.8,0.1,1.7,0.1,2.5
		c0,0.8,0,1.7-0.1,2.5c-0.2,6.6-1.2,12.8-2.5,18.5c-1.4,5.7-3.2,11-5,15.7c-1.9,4.7-3.7,8.9-5.5,12.6c-1.8,3.7-3.5,6.8-4.8,9.4
		c-1.4,2.6-2.5,4.6-3.3,5.9C227.2,244.7,226.7,245.4,226.7,245.4z"/>
</g>
<g>
	<path class="st2" d="M414.6,224.8c0,0,0.1-0.6,0.4-1.7c0.3-1.1,0.7-2.7,1.3-4.7c0.5-2,1.2-4.4,1.9-7.2c0.7-2.8,1.5-5.9,2.3-9.3
		c0.8-3.4,1.4-7.1,2-10.9c0.5-3.8,0.7-7.9,0.5-11.9c0-0.5,0-1-0.1-1.5c0-0.5-0.1-1-0.2-1.5c-0.1-1-0.2-2.1-0.4-3.1
		c-0.2-1-0.3-2-0.6-3l-0.4-1.5l-0.2-0.8l-0.1-0.4c0,0,0,0.2,0,0.1l0-0.1l0-0.1l-0.1-0.2l-0.5-1.7l-0.5-1.4c-0.4-1-0.8-2-1.2-3
		c-0.9-2-1.9-4-2.9-6.1c-2.1-4.1-4.4-8.3-6.4-12.7c-1-2.2-1.9-4.5-2.7-6.9c-0.2-0.5-0.3-1.1-0.5-1.6c-0.2-0.5-0.3-1.2-0.5-1.8
		c-0.3-1.2-0.6-2.4-0.8-3.6c-0.9-4.7-1.1-9.3-0.9-13.6c0.2-4.3,0.9-8.3,1.9-11.9c0.9-3.6,2.2-6.8,3.4-9.5c0.7-1.3,1.3-2.6,1.9-3.7
		c0.7-1.1,1.3-2.1,1.9-3c0.6-0.9,1.1-1.6,1.6-2.3c0.5-0.6,1-1.2,1.3-1.6c0.7-0.9,1.1-1.3,1.1-1.3S417,82,416.6,83
		c-0.2,0.5-0.5,1.1-0.8,1.9c-0.3,0.8-0.6,1.6-0.9,2.6c-0.3,1-0.6,2.1-1,3.2c-0.3,1.2-0.6,2.5-1,3.8c-0.2,1.4-0.6,2.8-0.8,4.4
		c-0.1,0.8-0.2,1.6-0.3,2.4c-0.1,0.8-0.2,1.6-0.2,2.5c-0.3,3.4-0.3,7,0,10.8c0.3,3.8,1,7.8,2.1,11.7c0.2,1,0.6,1.9,0.9,2.9
		c0.2,0.5,0.3,0.9,0.5,1.5c0.2,0.5,0.4,1.1,0.6,1.6c0.7,1.9,1.6,3.9,2.6,5.9c2,3.9,4.3,8,6.5,12.3c1.1,2.2,2.2,4.4,3.1,6.7
		c0.5,1.2,0.9,2.3,1.4,3.6l0.6,1.9l0.5,1.7l0.1,0.5l0.1,0.5l0.2,0.9l0.4,1.9c0.3,1.2,0.3,2.5,0.5,3.7c0.2,1.2,0.2,2.5,0.2,3.7
		c0.1,1.2,0,2.4,0,3.6c-0.2,4.8-1,9.3-2,13.4c-1.1,4.1-2.4,7.9-3.8,11.2c-1.4,3.3-2.8,6.3-4.2,8.9c-1.3,2.6-2.6,4.8-3.7,6.6
		c-1,1.8-2,3.2-2.5,4.1C414.9,224.3,414.6,224.8,414.6,224.8z"/>
</g>
<g>
	<path class="st2" d="M171.7,229.5c0,0,0.1-0.6,0.4-1.7c0.3-1.1,0.7-2.7,1.3-4.7c0.5-2,1.2-4.4,1.9-7.2c0.7-2.8,1.5-5.9,2.3-9.3
		c0.8-3.4,1.4-7.1,2-10.9c0.5-3.8,0.7-7.9,0.5-11.9c0-0.5,0-1-0.1-1.5c0-0.5-0.1-1-0.2-1.5c-0.1-1-0.2-2.1-0.4-3.1
		c-0.2-1-0.3-2-0.6-3l-0.4-1.5l-0.2-0.8l-0.1-0.4c0,0,0,0.2,0,0.1l0-0.1l0-0.1l-0.1-0.2l-0.5-1.7l-0.5-1.4c-0.4-1-0.8-2-1.2-3
		c-0.9-2-1.9-4-2.9-6.1c-2.1-4.1-4.4-8.3-6.4-12.7c-1-2.2-1.9-4.5-2.7-6.9c-0.2-0.5-0.3-1.1-0.5-1.6c-0.2-0.5-0.3-1.2-0.5-1.8
		c-0.3-1.2-0.6-2.4-0.8-3.6c-0.9-4.7-1.1-9.3-0.9-13.6c0.2-4.3,0.9-8.3,1.9-11.9c0.9-3.6,2.2-6.8,3.4-9.5c0.7-1.3,1.3-2.6,1.9-3.7
		c0.7-1.1,1.3-2.1,1.9-3c0.6-0.9,1.1-1.6,1.6-2.3c0.5-0.6,1-1.2,1.3-1.6c0.7-0.9,1.1-1.3,1.1-1.3s-0.2,0.6-0.6,1.6
		c-0.2,0.5-0.5,1.1-0.8,1.9c-0.3,0.8-0.6,1.6-0.9,2.6c-0.3,1-0.6,2.1-1,3.2c-0.3,1.2-0.6,2.5-1,3.8c-0.2,1.4-0.6,2.8-0.8,4.4
		c-0.1,0.8-0.2,1.6-0.3,2.4c-0.1,0.8-0.2,1.6-0.2,2.5c-0.3,3.4-0.3,7,0,10.8c0.3,3.8,1,7.8,2.1,11.7c0.2,1,0.6,1.9,0.9,2.9
		c0.2,0.5,0.3,0.9,0.5,1.5c0.2,0.5,0.4,1.1,0.6,1.6c0.7,1.9,1.6,3.9,2.6,5.9c2,3.9,4.3,8,6.5,12.3c1.1,2.2,2.2,4.4,3.1,6.7
		c0.5,1.2,0.9,2.3,1.4,3.6l0.6,1.9l0.5,1.7l0.1,0.5l0.1,0.5l0.2,0.9l0.4,1.9c0.3,1.2,0.3,2.5,0.5,3.7c0.2,1.2,0.2,2.5,0.2,3.7
		c0.1,1.2,0,2.4,0,3.6c-0.2,4.8-1,9.3-2,13.4c-1.1,4.1-2.4,7.9-3.8,11.2c-1.4,3.3-2.8,6.3-4.2,8.9c-1.3,2.6-2.6,4.8-3.7,6.6
		c-1,1.8-2,3.2-2.5,4.1C172,229,171.7,229.5,171.7,229.5z"/>
</g>
</svg>
