<?xml version="1.0" encoding="utf-8"?>
<!-- Generator: Adobe Illustrator 19.2.0, SVG Export Plug-In . SVG Version: 6.00 Build 0)  -->
<svg version="1.1" xmlns="http://www.w3.org/2000/svg" xmlns:xlink="http://www.w3.org/1999/xlink" x="0px" y="0px"
	 viewBox="0 0 600 600" style="enable-background:new 0 0 600 600;" xml:space="preserve">
<style type="text/css">
	.st0{fill:#F7931E;}
	.st1{fill:#D3C090;}
	.st2{fill:#EBDDB3;}
	.st3{fill:#E2CF9F;}
</style>
<g id="Layer_1">
</g>
<g id="Layer_2">
	<path class="st0" d="M58.2,62.7C221-100.2,490.5,116.1,462.4,275.8c-141.8,141.8-149,149.7-185.7,185.7
		C98.4,477.6-89.9,210.8,58.2,62.7z"/>
	<path class="st1" d="M597.5,525.9c-8.9,21.7-39.9,50.7-62.3,62.3c-28.5-43-186.3-198.6-186.3-198.6l48.7-48.7
		C397.6,340.9,545.7,492.1,597.5,525.9z"/>
	<path class="st2" d="M462.9,276.3c-49.1,128.3,5,141.7-15.4,162c-21.5,21.5-71.8-37.3-170.8,23.2l0,0"/>
	<path class="st1" d="M597.5,525.9c-8.9,21.7-39.9,50.7-62.3,62.3c-28.5-43-186.3-198.6-186.3-198.6l48.7-48.7
		C397.6,340.9,545.7,492.1,597.5,525.9z"/>
	<path class="st3" d="M348.1,390.4l48.9-48.9c0,0,36.2,35.5,11.5,60.2c-23.8,23.8-60.4-12.7-60.4-12.7"/>
</g>
</svg>
