<?xml version="1.0" encoding="utf-8"?>
<!-- Generator: Adobe Illustrator 19.2.0, SVG Export Plug-In . SVG Version: 6.00 Build 0)  -->
<svg version="1.1" id="Layer_1" xmlns="http://www.w3.org/2000/svg" xmlns:xlink="http://www.w3.org/1999/xlink" x="0px" y="0px"
	 viewBox="0 0 133.1 235" style="enable-background:new 0 0 133.1 235;" xml:space="preserve">
<style type="text/css">
	.st0{fill:#C44830;}
	.st1{fill:#73E000;}
	.st2{opacity:0.1;}
	.st3{fill:#C95041;}
</style>
<polygon class="st0" points="102,235 30.1,235 6.5,151.4 125.9,151.4 "/>
<path class="st1" d="M80,128.9c4.4-13.7,4.9-28.6,1.6-42.6c3,6.7,5.8,13.6,7,20.9c1.2,7.3,0.9,14.9-2.1,21.7"/>
<path class="st2" d="M80,128.9c4.4-13.7,4.9-28.6,1.6-42.6c3,6.7,5.8,13.6,7,20.9c1.2,7.3,0.9,14.9-2.1,21.7"/>
<rect x="1.1" y="127.2" class="st3" width="130.4" height="24.2"/>
<polygon class="st2" points="102.3,235 66.6,235 66.6,151.4 126.2,151.4 "/>
<polygon class="st3" points="131.5,223.9 1.5,223.9 6.6,235 126.4,235 "/>
<path class="st3" d="M131,223.9H2.2c-1.1,0-2.1-0.9-2.1-2.1v-1.1c0-1.1,0.9-2.1,2.1-2.1H131c1.1,0,2.1,0.9,2.1,2.1v1.1
	C133.1,223,132.2,223.9,131,223.9z"/>
<path class="st1" d="M58.2,127.2c-7.3-16.8-1.4-37.4,2.8-55.2c4.2-17.8,7.8-37.4-0.7-53.6c9.1,9.1,11.7,23,10.9,35.8
	c-0.8,12.9-4.6,25.4-6.2,38.2c-1.7,12.8-2.6,24,4.6,34.8"/>
<path class="st1" d="M55.1,101.7c0.2-7.8-2.5-17.9-7.2-24.1s-11.5-10.9-19-12.9c12-0.1,23.7,6.9,29.5,17.4"/>
<path class="st1" d="M71,56.9c1.2-10.8,7.7-20.9,17-26.5c-7.6,1.1-14.4,6.4-17.3,13.4"/>
<path class="st1" d="M81.8,86.7c3.6,3.7,6.3,8.4,7.8,13.4c1.7-4.6,0.3-10.2-2.8-13.9c-3.5-4.1-9.3-6.2-11.7-11
	c-1.4,7.6,1.8,22,9.4,25.8"/>
<path class="st1" d="M89,30c-2.8,2.1-5.1,4.9-6.6,8.1c4,0.4,8.4-1,10.9-4.2c1.3-1.7,2.1-3.8,3.4-5.6c1.3-1.8,3.2-3.3,5.4-3.1
	c-4.3-2-9.2-3.4-13.7-2.1c-4.6,1.3-8.7,5.5-8.7,10.8"/>
<path class="st1" d="M60.2,18.4c3,1.5,5.3,3.1,6.6,6.2c1.1-4.4-0.3-9.3-2.9-13c-2.6-3.7-6.4-6.4-10.5-8.4c-4.1-1.9-8.7-3.1-13.2-2.6
	c3.9,1.4,6,5.6,7.2,9.6c1.1,4,1.7,8.3,4.3,11.6c2.7,3.6,8.3,6.6,13.9,6.6"/>
<path class="st1" d="M30,64.9c3.1,1.1,6.8,3.3,8.2,6.3c-3.2,0.4-7.6,0.6-10.8,0c-3.2-0.6-6.3-2.1-8.3-4.6c-3.2-3.9-3.3-9.4-3.3-14.4
	c0.9,2.6,3.5,4.3,6.1,5.1c2.6,0.8,5.4,1.1,8,2c2.6,0.9,5.4,3.4,6.1,6.1"/>
<rect x="66.6" y="127.2" class="st2" width="65" height="24.2"/>
<polygon class="st2" points="131.5,223.9 66.6,223.9 66.6,235 126.4,235 "/>
<path class="st2" d="M131,223.9H66.6v-5.3H131c1.1,0,2.1,0.9,2.1,2.1v1.1C133.1,223,132.2,223.9,131,223.9z"/>
<path class="st2" d="M81.8,86.7c3.6,3.7,6.3,8.4,7.8,13.4c1.7-4.6,0.3-10.2-2.8-13.9c-3.5-4.1-9.3-6.2-11.7-11
	c-1.4,7.6,1.8,22,9.4,25.8"/>
<path class="st2" d="M102.1,25.1c-2.2-0.2-4.2,1.3-5.4,3.1c-1.3,1.8-2.1,3.8-3.4,5.6c-2.4,3.2-6.8,4.7-10.9,4.2
	c1.5-3.2,3.8-6,6.6-8.1l-1.2,0.5C78.6,36.1,72.2,46.2,71,56.9l-0.3-13.1c1.8-4.3,5-7.9,8.9-10.3c0.2-5.1,4.3-9.1,8.7-10.4
	C92.9,21.8,97.8,23.1,102.1,25.1z"/>
</svg>
