<?xml version="1.0" encoding="utf-8"?>
<!-- Generator: Adobe Illustrator 19.2.0, SVG Export Plug-In . SVG Version: 6.00 Build 0)  -->
<svg version="1.1" xmlns="http://www.w3.org/2000/svg" xmlns:xlink="http://www.w3.org/1999/xlink" x="0px" y="0px"
	 viewBox="0 0 220.7 213.9" style="enable-background:new 0 0 220.7 213.9;" xml:space="preserve">
<style type="text/css">
	.st0{display:none;}
	.st1{display:inline;fill:none;stroke:#00A99D;stroke-width:5;stroke-linecap:round;stroke-miterlimit:10;}
	.st2{fill:none;stroke:#00A99D;stroke-width:5;stroke-linecap:round;stroke-linejoin:round;stroke-miterlimit:10;}
	.st3{fill:#FFFFFF;stroke:#00A99D;stroke-width:5;stroke-linecap:round;stroke-linejoin:round;stroke-miterlimit:10;}
</style>
<g id="Layer_1">
</g>
<g id="Layer_2" class="st0">
	<polyline class="st1" points="168.7,88.7 211.9,88.7 232.1,60.7 257.7,60.7 	"/>
	<line class="st1" x1="168.7" y1="116.7" x2="257.7" y2="116.7"/>
	<polyline class="st1" points="168.7,101.7 218.6,101.7 230.6,86.7 257.7,86.7 	"/>
	<polyline class="st1" points="168.7,130.7 191.9,130.7 218.1,168.7 257.7,168.7 	"/>
	<polyline class="st1" points="45.7,115.7 19.7,115.7 7.4,143.7 -33.3,143.7 	"/>
	<polyline class="st1" points="45.7,101.7 18.7,101.7 -12.1,74.7 -33.3,74.7 	"/>
	<polyline class="st1" points="45.7,88.3 23.7,89 -17,51.7 -33.3,51.7 	"/>
	<polyline class="st1" points="45.7,74.7 32.7,74.7 -33.3,14 	"/>
</g>
<g id="Layer_3">
	<path class="st2" d="M140.8,79.7L141.5,3c-0.2,0-0.5,0-0.7,0C98.8,3,64.1,37.6,64.1,79.7s34.6,76.7,76.7,76.7s76.7-34.6,76.7-76.7
		c0-12.9-3.3-25.6-9.5-36.9L140.8,79.7z"/>
	<path class="st2" d="M140.8,79.7L141.5,3c-0.2,0-0.5,0-0.7,0C98.8,3,64.1,37.6,64.1,79.7s34.6,76.7,76.7,76.7
		c33.7,0,63.6-22.2,73.4-54.5L140.8,79.7z"/>
	<path class="st2" d="M140.8,79.7L141.5,3c-0.2,0-0.5,0-0.7,0C98.8,3,64.1,37.6,64.1,79.7s34.6,76.7,76.7,76.7s76.7-34.6,76.7-76.7
		c0-4.5-0.4-9-1.2-13.4L140.8,79.7z"/>
	<circle class="st2" cx="140.8" cy="79.7" r="76.7"/>
	<polygon class="st3" points="2.6,36.7 2.6,211.5 183,211.5 	"/>
	<polygon class="st2" points="39.4,122.1 39.4,178 97.2,178 	"/>
	<line class="st2" x1="118.1" y1="151.1" x2="111.2" y2="158.2"/>
	<line class="st2" x1="111.8" y1="145" x2="104.9" y2="152.1"/>
	<line class="st2" x1="105" y1="138.3" x2="91.1" y2="152.5"/>
	<line class="st2" x1="124.6" y1="157.5" x2="117.7" y2="164.6"/>
	<line class="st2" x1="91.7" y1="125.4" x2="84.8" y2="132.5"/>
	<line class="st2" x1="85.4" y1="119.2" x2="78.5" y2="126.3"/>
	<line class="st2" x1="78.6" y1="112.5" x2="64.7" y2="126.7"/>
	<line class="st2" x1="98.3" y1="131.7" x2="91.3" y2="138.8"/>
	<line class="st2" x1="65.4" y1="99.6" x2="58.4" y2="106.7"/>
	<line class="st2" x1="59.1" y1="93.5" x2="52.1" y2="100.5"/>
	<line class="st2" x1="52.2" y1="86.8" x2="38.4" y2="101"/>
	<line class="st2" x1="71.9" y1="106" x2="65" y2="113.1"/>
	<line class="st2" x1="39" y1="73.8" x2="32.1" y2="80.9"/>
	<line class="st2" x1="32.7" y1="67.7" x2="25.8" y2="74.8"/>
	<line class="st2" x1="25.9" y1="61" x2="12" y2="75.2"/>
	<line class="st2" x1="45.5" y1="80.2" x2="38.6" y2="87.3"/>
	<line class="st2" x1="145.3" y1="175.7" x2="138.3" y2="182.8"/>
	<line class="st2" x1="139" y1="169.6" x2="132" y2="176.7"/>
	<line class="st2" x1="132.1" y1="162.9" x2="118.3" y2="177.1"/>
	<line class="st2" x1="151.8" y1="182.1" x2="144.9" y2="189.2"/>
	<line class="st2" x1="158.8" y1="188.9" x2="144.9" y2="203.1"/>
	<polygon class="st2" points="7.7,3 50.6,25.1 30.8,45.4 	"/>
	<line class="st2" x1="17.9" y1="18.1" x2="23.5" y2="12.4"/>
	<path class="st3" d="M215.6,198.6l-7.4,7.6c-3.4,3.5-9,3.6-12.6,0.1L30.8,45.4l19.8-20.3L215.4,186
		C218.9,189.4,219,195,215.6,198.6z"/>
	<line class="st2" x1="190.2" y1="199.1" x2="208" y2="181.3"/>
	<line class="st2" x1="183" y1="194.5" x2="200.8" y2="176.8"/>
</g>
</svg>
