<svg xmlns="http://www.w3.org/2000/svg" viewBox="0 0 685 463.61"><defs><style>.a{fill:#a67c52;}.b,.f{fill:none;}.c{fill:#b3b3b3;}.d{fill:#999;}.e{fill:#fff;}.f{stroke:#754c24;stroke-miterlimit:10;}</style></defs><title>welcome</title><path class="a" d="M379,210.59c2.44,18.09.46,37.62-4,55.33-1.79,7.12-.3,13.24,0,20.58,0.5,11.35,6.18,23.25,13.74,31.73,6.88,7.71,12.57,17.45,22.83,16.2-3,5.46,3.4,10.86,6.64,16.2s9,10.14,14.07,13.81S444.39,368,450.23,368c19.64-27.41,52.32-41.64,64.27-73.17,2.1-5.53.72-12.08-.37-17.89-1.31-7-6.11-12.77-10.22-18.61s-7.82-12.77-6.5-19.79c-12.41-18.54-31.5-33.39-53.1-39-21.42-5.55-45.71-3-63.26,10.45" transform="translate(0.18 0)"/><path class="b" d="M128.79,368H68.64q11.5,48,24.77,95.57a436.31,436.31,0,0,0,60.79-47.46l-1.1-1.25A174.59,174.59,0,0,1,128.79,368Z" transform="translate(0.18 0)"/><path class="a" d="M119,321.24c7.16-7.87,10-18.92,10-29.56s-2.69-21.09-5.32-31.4l-9.76-38.19c-0.76-3-2.08-6.52-5.11-7.08-3.45-.64-6,3.09-7.24,6.39a49.64,49.64,0,0,0-2.43,24.72L66.62,181.22c-1.18-2.36-2.46-4.82-4.65-6.29s-5.59-1.5-7.12.64c-1.31,1.83-.79,4.33-0.23,6.51l14,53.83-28-50.52c-1.93-3.47-4-7.11-7.44-9.11s-8.62-1.56-10.48,1.95c-1.53,2.88-.3,6.39,1,9.41l24.76,59.68L24.55,201.58c-1.46-2.79-3-5.69-5.59-7.49s-6.53-2.06-8.64.28c-2.49,2.77-1.14,7.11.34,10.53l25.78,59.72Q23.22,245,10.81,224.88L2,229.76c3.73,16,16.72,29.07,20.12,45.14a107.09,107.09,0,0,0,22.51,46.34c7.63,9.13,16.88,16.42,19.57,28q2.18,9.4,4.44,18.79h60.16A193.38,193.38,0,0,1,119,321.24Z" transform="translate(0.18 0)"/><path class="b" d="M466.93,275.11c-3.17,1.36-26.24,10.87-52.36,2.94-11.81-3.59-23.05-10.39-32.59-19.11a38.11,38.11,0,0,0-6.19,16,42.25,42.25,0,0,0,.26,12.88l69.59,0.93,0-1.08a285.14,285.14,0,0,1,68.39-6.43c-1.79-11.17-8.1-19-16.52-29.84C489.31,261.43,479.18,269.85,466.93,275.11Z" transform="translate(0.18 0)"/><path class="b" d="M198.36,367.77c10.43-27.54,40.46-41.41,67.72-52.55,22.05-9,45.56-18.92,67.61-27.93l6.64,0.09c2.14-11.7,6.85-22.92,15-31.49a59.86,59.86,0,0,1,14.17-10.82C359.81,232,353.84,216.82,354,202.16c0-1.21,0-2.37,0-3.52-3.29-2.48-5.93-5.74-6.84-9.22-0.67-2.58.25-2.82,0.43-8.21,0.37-11-3.3-13.81-3-25.05a49.19,49.19,0,0,1,.37-5.92,14,14,0,0,1-4.53-4.57c-8.61-12.92-10.22-27.84-10-37.07,1.21-52.1,36.48-82.37,36.48-82.37,37.75-32.4,102.15-36.84,141.2-1.77,25.64,23,38.51,63.73,31.77,88.84-6.54,24.39-8.75,15.74-11.57,30.71a15.84,15.84,0,0,1,3,5.78c1,3.81-.11,6.17-0.9,10.76-2,11.55,2.07,15.3.9,22-0.77,4.43-3.62,8.81-7.34,12.42-3.41,15.18-9.86,32.52-19.93,47.63,9.33,3.19,17.83,8.26,23.87,15.94s10.36,18.34,19.86,20.65c0.89,1.76,1.74,3.54,2.57,5.34a274.46,274.46,0,0,1,89.48,29.83,99.24,99.24,0,0,1,42.06,44.55c1,2.12,1.87,4.29,2.87,6.49V0h-685V368H198.26Z" transform="translate(0.18 0)"/><path class="c" d="M394.16,333a108.4,108.4,0,0,0-52,10.92,198.34,198.34,0,0,1-3.11-46,86,86,0,0,1,1.27-10.58l-6.64-.09c-22.05,9-45.56,18.92-67.61,27.93-27.26,11.14-57.3,25-67.72,52.55l-0.1.27H427.19A263.29,263.29,0,0,1,394.16,333Z" transform="translate(0.18 0)"/><path class="c" d="M639.89,314.36a274.46,274.46,0,0,0-89.48-29.83,188.86,188.86,0,0,1,8.9,23.33c3,9.8,4.38,20.33,2.26,30.37-0.59,2.79-2,6-4.8,6.42-1.64.24-3.21-.6-4.7-1.33a51.54,51.54,0,0,0-44.22-.45c0.88,4.73,1.09,11.29,2,16A101.07,101.07,0,0,0,474.44,368H684.82V365.4c-1-2.2-1.88-4.37-2.87-6.49A99.24,99.24,0,0,0,639.89,314.36Z" transform="translate(0.18 0)"/><path class="d" d="M422.27,350.53c-4.44-5.44-8.22-11.41-6.42-18.19-11.54-4.91-22.29-12.18-29.91-22.14A51.4,51.4,0,0,1,376,287.85a42.25,42.25,0,0,1-.26-12.88,38.11,38.11,0,0,1,6.19-16,96.73,96.73,0,0,1-12.51-13.88,59.86,59.86,0,0,0-14.17,10.82c-8.12,8.58-12.82,19.8-15,31.49A86,86,0,0,0,339.06,298a198.34,198.34,0,0,0,3.11,46,108.4,108.4,0,0,1,52-10.92,263.29,263.29,0,0,0,33,35.05h17.2c-1.92-1.46-3.9-2.85-5.89-4.2C432.69,359.89,426.71,356,422.27,350.53Z" transform="translate(0.18 0)"/><path class="d" d="M507.85,342.85a51.54,51.54,0,0,1,44.22.45c1.48,0.74,3.06,1.57,4.7,1.33,2.82-.41,4.21-3.63,4.8-6.42,2.13-10,.78-20.56-2.26-30.37a188.86,188.86,0,0,0-8.9-23.33c-0.83-1.8-1.68-3.58-2.57-5.34-9.51-2.31-13.82-13-19.86-20.65s-14.55-12.76-23.87-15.94a108.89,108.89,0,0,1-6.55,8.84c8.42,10.84,14.73,18.67,16.52,29.84a41.66,41.66,0,0,1,.53,6.36c-8.22,20.53-22.49,39-39.59,54.06-9.24,8.14-18.13,16.67-24.78,26.36h24.22a101.07,101.07,0,0,1,35.37-9.17C508.93,354.14,508.73,347.58,507.85,342.85Z" transform="translate(0.18 0)"/><path class="a" d="M352.2,155.09c-0.76-4.34-3.53-2.69-7.24-4.85a49.19,49.19,0,0,0-.37,5.92c-0.28,11.24,3.4,14.08,3,25.05-0.18,5.39-1.1,5.63-.43,8.21,0.91,3.48,3.55,6.74,6.84,9.22C354.28,183.32,355.26,172.55,352.2,155.09Z" transform="translate(0.18 0)"/><path class="a" d="M526.94,168c0.35,7-.56,16.45-2.92,26.93,3.72-3.61,6.56-8,7.34-12.42,1.17-6.67-2.88-10.42-.9-22,0.79-4.6,1.94-7,.9-10.76a15.84,15.84,0,0,0-3-5.78c-0.07.35-.13,0.69-0.2,1.06A94.55,94.55,0,0,0,526.94,168Z" transform="translate(0.18 0)"/><path d="M382,258.94c9.54,8.72,20.78,15.53,32.59,19.11,26.12,7.93,49.19-1.58,52.36-2.94,12.25-5.26,22.38-13.68,30.62-23.68a108.89,108.89,0,0,0,6.55-8.84C514.17,227.48,520.62,210.15,524,195c2.35-10.48,3.26-19.94,2.92-26.93a94.55,94.55,0,0,1,1.18-22.95c0.07-.37.13-0.72,0.2-1.06,2.82-15,5-6.32,11.57-30.71,6.74-25.11-6.13-65.81-31.77-88.84C469.06-10.6,404.66-6.16,366.91,26.24c0,0-35.27,30.27-36.48,82.37-0.21,9.23,1.39,24.15,10,37.07a14,14,0,0,0,4.53,4.57c3.71,2.16,6.48.51,7.24,4.85,3.06,17.46,2.08,28.23,1.81,43.54,0,1.15,0,2.32,0,3.52-0.12,14.67,5.85,29.84,15.49,42.91A96.73,96.73,0,0,0,382,258.94Zm-26.48-85.09c0.44-6.68,2.1-10.2,3.53-25.89,1.38-15.11.57-19.82,1.18-27.06,2.42-29,24.12-58.74,38.83-57.07,6.74,0.77,9.49,7.85,15.89,6.47,6-1.29,6.06-8,12.36-14.12,13-12.57,40.21-10.81,45.89-1.18,1.79,3,1,6.11,4.12,8.83,3.8,3.31,8.42,1.75,12.36,2.35,14.45,2.2,23.27,34.12,25.3,55.3,0.69,7.2.05,7.51,1.18,24.71,1.16,17.8,2.15,22.19,2.35,27.65,0.76,20.56-9.92,49.43-30,59.42-11.36,5.65-14.83-.16-52.36-1.18-36.26-1-39.8,4.26-51.19-1.77C366,220.31,354.15,194.39,355.49,173.86Z" transform="translate(0.18 0)"/><path class="a" d="M384.91,230.34c11.39,6,14.92.78,51.19,1.77,37.53,1,41,6.83,52.36,1.18,20.09-10,30.77-38.86,30-59.42-0.2-5.46-1.19-9.86-2.35-27.65-1.12-17.2-.49-17.51-1.18-24.71-2-21.19-10.85-53.1-25.3-55.3-3.93-.6-8.56,1-12.36-2.35C474.17,61.12,475,58,473.17,55c-5.68-9.64-32.93-11.39-45.89,1.18C421,62.29,420.9,69,414.92,70.31c-6.39,1.37-9.15-5.71-15.89-6.47-14.72-1.67-36.41,28.11-38.83,57.07-0.6,7.25.2,12-1.18,27.06-1.43,15.68-3.09,19.21-3.53,25.89C354.15,194.39,366,220.31,384.91,230.34Z" transform="translate(0.18 0)"/><path class="e" d="M404.48,194.94c1.88-9.79,69.42-10,71.56.6,1,5.07-12.8,12.4-22.25,15-13.15,3.67-23.93,0-28.87-1.8C418.76,206.56,403.55,199.78,404.48,194.94Z" transform="translate(0.18 0)"/><circle cx="472.81" cy="126.11" r="5.29"/><circle cx="404.62" cy="126.11" r="5.29"/><path class="f" d="M418.76,151.75a12.44,12.44,0,0,0-3.52,5.57c-0.92,3.12-.88,7.91,1.47,9.09,1.3,0.65,2.92,0,4.4-.59,3.12-1.25,3.16-2.83,5-3.23,2.89-.63,4,3.09,9.09,4.69a14,14,0,0,0,8.5,0c4.5-1.59,4.57-4.9,7.62-5,3.31-.09,4.43,3.77,8.5,3.52a5.23,5.23,0,0,0,3.52-1.47c1.5-1.63,1.14-4.06.88-5.86a16.64,16.64,0,0,0-3.81-8.21" transform="translate(0.18 0)"/></svg>